<?xml version="1.0" standalone="no"?>
<!DOCTYPE svg PUBLIC "-//W3C//DTD SVG 20010904//EN"
 "http://www.w3.org/TR/2001/REC-SVG-20010904/DTD/svg10.dtd">
<svg version="1.0" xmlns="http://www.w3.org/2000/svg"
 width="222.000000pt" height="222.000000pt" viewBox="0 0 222.000000 222.000000"
 preserveAspectRatio="xMidYMid meet">
<metadata>
Created by potrace 1.11, written by Peter Selinger 2001-2013
</metadata>
<g transform="translate(0.000000,222.000000) scale(0.100000,-0.100000)"
fill="#000000" stroke="none">
<path d="M0 1110 l0 -1110 1110 0 1110 0 0 1110 0 1110 -1110 0 -1110 0 0
-1110z m1010 729 c0 -12 -29 -24 -37 -16 -3 4 -3 13 0 21 6 16 37 11 37 -5z
m398 -5 c4 -29 -37 -75 -79 -90 -28 -9 -33 -15 -31 -35 2 -13 11 -36 20 -51
14 -24 17 -25 36 -12 24 16 89 19 117 4 10 -6 19 -19 19 -30 0 -38 -79 -54
-131 -26 -23 12 -27 11 -39 -7 -7 -11 -16 -33 -20 -48 -8 -26 -5 -29 26 -39
41 -14 86 -65 82 -94 -2 -17 -9 -21 -38 -18 -41 3 -77 34 -85 74 l-7 29 -153
-3 c-145 -3 -155 -4 -178 -26 -32 -30 -41 -65 -27 -107 18 -54 45 -65 161 -65
213 0 336 -66 408 -219 22 -48 26 -69 26 -151 0 -82 -4 -103 -26 -150 -39 -82
-90 -135 -167 -172 l-66 -33 -183 -3 -182 -3 -6 -29 c-12 -57 -106 -106 -121
-65 -15 38 46 105 95 105 16 0 14 36 -5 71 -11 23 -20 29 -32 23 -32 -14 -104
-16 -128 -3 -31 16 -30 34 1 55 25 16 64 16 122 -2 18 -5 25 0 39 29 21 44 14
62 -25 70 -51 10 -93 99 -55 114 29 11 81 -23 100 -66 l18 -41 137 0 c76 0
148 4 162 9 60 23 79 114 33 160 -24 24 -34 26 -158 32 -152 8 -183 16 -255
61 -101 65 -156 161 -161 285 -7 147 51 260 168 331 78 46 105 51 288 53 l164
1 14 33 c27 67 115 101 122 49z m92 -49 c0 -8 -9 -15 -20 -15 -11 0 -20 7 -20
15 0 8 9 15 20 15 11 0 20 -7 20 -15z m-840 -100 c0 -8 -7 -15 -15 -15 -8 0
-15 7 -15 15 0 8 7 15 15 15 8 0 15 -7 15 -15z m846 -196 c10 -17 -13 -36 -27
-22 -12 12 -4 33 11 33 5 0 12 -5 16 -11z m-462 -100 c-8 -14 -34 -11 -34 4 0
8 3 17 7 20 9 9 34 -13 27 -24z m204 -11 c-7 -19 -38 -22 -38 -4 0 10 9 16 21
16 12 0 19 -5 17 -12z m302 -153 c0 -8 -7 -15 -15 -15 -8 0 -15 7 -15 15 0 8
7 15 15 15 8 0 15 -7 15 -15z m-930 -80 c0 -8 -9 -15 -20 -15 -11 0 -20 7 -20
15 0 8 9 15 20 15 11 0 20 -7 20 -15z m360 -200 c0 -8 -7 -15 -15 -15 -8 0
-15 7 -15 15 0 8 7 15 15 15 8 0 15 -7 15 -15z m176 -26 c10 -17 -13 -36 -27
-22 -12 12 -4 33 11 33 5 0 12 -5 16 -11z m404 -295 c0 -8 -7 -14 -15 -14 -15
0 -21 21 -9 33 10 9 24 -2 24 -19z m-887 -69 c1 -5 -6 -11 -15 -13 -11 -2 -18
3 -18 13 0 17 30 18 33 0z m457 -115 c0 -11 -7 -20 -15 -20 -8 0 -15 9 -15 20
0 11 7 20 15 20 8 0 15 -9 15 -20z"/>
<path d="M1326 1814 c-28 -29 -34 -54 -12 -54 20 0 76 49 76 66 0 23 -35 16
-64 -12z"/>
<path d="M949 1730 c-64 -11 -137 -51 -185 -102 -168 -174 -117 -447 102 -554
51 -25 71 -28 193 -33 108 -5 143 -10 164 -24 58 -38 63 -132 11 -184 -26 -26
-69 -33 -205 -33 -127 0 -139 -2 -139 -18 0 -10 -9 -35 -20 -56 -19 -38 -19
-39 0 -77 11 -21 20 -48 20 -60 0 -21 2 -21 168 -17 204 5 257 21 337 102 72
72 99 132 103 231 6 124 -34 214 -129 288 -77 60 -108 69 -266 76 -132 6 -143
8 -167 30 -55 51 -51 142 7 185 25 19 46 22 180 26 l151 5 9 35 c5 19 15 42
23 51 12 13 11 21 -6 54 -11 22 -20 47 -20 56 0 9 -6 19 -13 22 -21 8 -268 6
-318 -3z m279 -108 c4 -27 -23 -40 -49 -24 -11 7 -61 12 -122 12 -85 0 -109
-4 -142 -21 -87 -46 -124 -106 -125 -203 0 -104 69 -190 174 -217 46 -11 48
-11 81 21 36 35 51 33 89 -9 11 -12 30 -21 42 -21 38 0 107 -31 143 -64 78
-72 98 -201 46 -290 -53 -91 -128 -126 -267 -126 -62 0 -96 -5 -112 -15 -19
-12 -25 -13 -40 -2 -26 19 -13 57 20 57 13 0 24 -4 24 -10 0 -16 215 -13 253
4 46 20 95 69 117 118 59 130 -22 281 -166 312 -27 6 -38 2 -67 -23 -19 -17
-38 -31 -43 -31 -4 0 -20 12 -35 26 -17 16 -46 30 -76 35 -69 13 -132 56 -168
113 -26 43 -30 59 -30 120 0 105 39 172 130 219 32 17 63 22 153 25 62 2 112
8 112 14 0 5 12 8 28 6 19 -2 28 -9 30 -26z"/>
<path d="M1055 1180 c-17 -18 -17 -21 -1 -45 20 -30 24 -30 55 -4 l24 20 -23
24 c-28 30 -32 30 -55 5z m51 -15 c4 -8 1 -22 -6 -30 -11 -14 -15 -14 -31 1
-14 13 -16 20 -8 31 15 17 38 17 45 -2z"/>
<path d="M1375 1636 l-30 -14 33 -14 c37 -16 75 -13 92 7 8 10 6 15 -12 20
-47 14 -54 14 -83 1z"/>
<path d="M1300 1474 c0 -8 13 -29 29 -45 47 -47 84 -32 43 17 -15 20 -52 44
-66 44 -3 0 -6 -7 -6 -16z"/>
<path d="M782 888 c3 -21 59 -68 80 -68 17 0 -3 45 -30 67 -35 29 -54 29 -50
1z"/>
<path d="M707 703 c-26 -7 -16 -26 19 -35 29 -8 84 6 84 22 0 18 -58 25 -103
13z"/>
<path d="M805 525 c-30 -29 -32 -55 -6 -55 19 0 71 52 71 71 0 18 -41 8 -65
-16z"/>
</g>
</svg>
